Source : VETO (Thanks)
 
http://www.imdb.com/title/tt2182019/


Format : AVI
Format/Info : Audio Video Interleave
File size : 700 MiB
Duration : 1h 26mn
Overall bit rate : 1 133 Kbps
Writing library : VirtualDub build 32842/release

Video
ID : 0
Format : MPEG-4 Visual
Format profile : Advanced Simple@L5
Format settings, BVOP : 2
Format settings, QPel : No
Format settings, GMC : No warppoints
Format settings, Matrix : Default (H.263)
Muxing mode : Packed bitstream
Codec ID : XVID
Codec ID/Hint : XviD
Duration : 1h 26mn
Bit rate : 996 Kbps
Width : 640 pixels
Height : 288 pixels
Display aspect ratio : 2.222
Frame rate : 23.976 fps
Color space : YUV
Chroma subsampling : 4:2:0
Bit depth : 8 bits
Scan type : Progressive
Compression mode : Lossy
Bits/(Pixel*Frame) : 0.225
Stream size : 615 MiB (88%)
Writing library : XviD 64

Audio
ID : 1
Format : MPEG Audio
Format version : Version 1
Format profile : Layer 3
Codec ID : 55
Codec ID/Hint : MP3
Duration : 1h 26mn
Bit rate mode : Constant
Bit rate : 128 Kbps
Channel(s) : 2 channels
Sampling rate : 44.1 KHz
Compression mode : Lossy
Stream size : 79.0 MiB (11%)
Alignment : Split accross interleaves
Interleave, duration : 42 ms (1.00 video frame)
Interleave, preload duration : 500 ms
Writing library : LAME3.99r
Encoding settings : -m s -V 4 -q 3 -lowpass 17 -b 128

Plot
A man must save his two children when they disappear during a holiday in the woods.
 
http://www.shotpix.com/images/00925247742175524477.png 
http://www.shotpix.com/images/21238384036328609603.png 
http://www.shotpix.com/images/49751003175272739841.png